<svg class="chat360__btn-logo" viewBox="0 0 26.236 26.338" xmlns="http://www.w3.org/2000/svg">
<defs>
<style>.a {
              fill: url(#f);
            }
            .b {
              fill: url(#e);
            }
            .c {
              fill: #fff;
            }
            .d {
              fill: url(#d);
            }</style>
<linearGradient id="f" x1="-.117" x2=".9" y1="1.135" y2=".023">
<stop stop-color="#fff" offset="0"></stop>
<stop stop-color="#fff" offset=".21"></stop>
<stop stop-color="#e7ecf2" offset=".68"></stop>
<stop stop-color="#dce3eb" offset="1"></stop>
</linearGradient>
<linearGradient id="e" x1="1.122" x2=".283" y1="1.293" y2=".423">
<stop stop-color="#fff" offset="0"></stop>
<stop stop-color="#fff" offset=".21"></stop>
<stop stop-color="#e7ecf2" offset=".78"></stop>
<stop stop-color="#e7ecf2" offset="1"></stop>
</linearGradient>
<linearGradient id="d" x1="1.206" x2="-.045" y1="1.314" y2=".23">
<stop stop-color="#fff" offset="0"></stop>
<stop stop-color="#fff" offset=".21"></stop>
<stop stop-color="#d9e1ea" offset=".78"></stop>
<stop stop-color="#dbe2ea" offset="1"></stop>
</linearGradient>
</defs>
<g transform="translate(0)">
<g transform="translate(0 .981)">
<path class="a" transform="translate(-155.9 -188.5)" d="M180.8,204.6a25.528,25.528,0,0,1-10.275,3.924,7.593,7.593,0,1,0-7.879-12.066,25.629,25.629,0,0,0-5.781,10.392c-.019.066-.038.138-.057.207q-.151.563-.264,1.137l-.471,4.257q-.024.646-.024,1.3h0l-.011-.986-.12,1.086v-.156l-.018-7.96.018-4.553a12.678,12.678,0,0,1,25.278-1.4h0c.008.071.015.143.021.214a.059.059,0,0,1,0,.015c.005.055.01.11.014.166,0,.026,0,.053.007.081q.015.213.023.428a.135.135,0,0,1,0,.016A13.587,13.587,0,0,1,180.8,204.6Z"></path>
<path class="b" transform="translate(-335.45 -188.5)" d="M360.346,204.6a25.528,25.528,0,0,1-10.275,3.924,7.593,7.593,0,0,0-1.931-14.938V188.5a12.682,12.682,0,0,1,12.6,11.274h0c.008.071.015.143.021.214a.057.057,0,0,1,0,.015c.005.055.01.11.014.166,0,.026,0,.053.007.081q.015.213.023.428a.124.124,0,0,1,0,.016A13.587,13.587,0,0,1,360.346,204.6Z"></path>
<ellipse class="c" transform="translate(11.505 11.555)" cx="1.123" cy="1.123" rx="1.123" ry="1.123"></ellipse>
<ellipse class="c" transform="translate(7.807 11.555)" cx="1.123" cy="1.123" rx="1.123" ry="1.123"></ellipse>
<ellipse class="c" transform="translate(15.203 11.555)" cx="1.123" cy="1.123" rx="1.123" ry="1.123"></ellipse>
<path class="d" transform="translate(-156.12 -301.04)" d="m168.77 321.31h-0.195l-0.152-7e-3a7.593 7.593 0 0 1-5.556-12.307 25.6 25.6 0 0 0-6.73 17.333v0.057c3.378-2.575 11.532-4.8 12.44-5.053z"></path>
<path class="c" transform="translate(-156.08 -348.07)" d="M180.983,364.167c-.026.092-.051.184-.078.273l-.027.088c-.015.05-.03.1-.046.148a12.271,12.271,0,0,1-2.26,4.118l-.007.009-.1.124-.113.132a12.647,12.647,0,0,1-9.574,4.367H156.1a.009.009,0,0,1,0,0,.01.01,0,0,1,0,0l.08-.06.051-.039h0a25.531,25.531,0,0,1,12.309-4.952h0l.19-.023h.047a7.59,7.59,0,0,0,1.351-.12q.3-.053.582-.129c3.7-.549,10.127-4.16,10.658-8.65v-.006l.009-.087.01.092c0,.04.008.081.011.121a.06.06,0,0,1,0,.015c.005.055.01.11.014.166,0,.026,0,.053.007.081q.015.213.023.428a.136.136,0,0,1,0,.017A13.588,13.588,0,0,1,180.983,364.167Z"></path>
</g>
<path class="c" transform="translate(-139.69 -830.96)" d="M165.16,830.977a.616.616,0,0,1,.751.751l-1.08,4.148a.616.616,0,0,1-1.031.28l-3.068-3.068a.616.616,0,0,1,.28-1.031Z"></path>
</g>
</svg>